<svg id="kity_svg_6" xmlns="http://www.w3.org/2000/svg" xmlns:xlink="http://www.w3.org/1999/xlink" version="1.1" width="1113" height="871" style="background: rgb(251, 251, 251); visibility: visible;" viewBox="0 0 1113 871"><defs id="kity_defs_7"><linearGradient id="kity_linearGradient_17" x1="0" y1="0" x2="0" y2="1"><stop id="kity_stop_18" offset="0" stop-color="rgb(255, 255, 255)"></stop><stop id="kity_stop_19" offset="1" stop-color="rgb(204, 204, 204)"></stop></linearGradient><marker id="kity_marker_2" orient="auto" refX="6" refY="0" viewBox="-7 -7 14 14" markerWidth="7" markerHeight="7" markerUnits="userSpaceOnUse"><path id="kity_path_3" fill="rgb(115, 161, 191)" stroke="none" d="M6,0A6,6,0,1,1,-6,0A6,6,0,1,1,6,0"></path></marker></defs><g id="kity_g_8"><g id="minder1" text-rendering="optimize-speed"><g id="minder_connect_group1"><path id="kity_path_31" fill="none" stroke="rgb(115, 161, 191)" stroke-width="1" d="M591.5,419.5A280,326,0,0,1,871.5,93.5"></path><path id="kity_path_39" fill="none" stroke="rgb(115, 161, 191)" stroke-width="1" d="M591.5,419.5A275,172,0,0,1,866.5,247.5"></path><path id="kity_path_47" fill="none" stroke="rgb(115, 161, 191)" stroke-width="1" d="M591.5,419.5A236,69,0,0,1,827.5,350.5"></path><path id="kity_path_63" fill="none" stroke="rgb(115, 161, 191)" stroke-width="1" d="M591.5,419.5A111,255,0,0,0,702.5,674.5"></path><path id="kity_path_203" fill="none" stroke="rgb(115, 161, 191)" stroke-width="1" d="M591.5,419.5A290,17,0,0,1,301.5,436.5"></path><path id="kity_path_226" fill="none" stroke="rgb(115, 161, 191)" stroke-width="1" d="M916.5,452.5C931.5,452.5,931.5,400.5,946.5,400.5L1012.5,400.5"></path><path id="kity_path_227" fill="none" stroke="rgb(115, 161, 191)" stroke-width="1" d="M916.5,452.5C931.5,452.5,931.5,452.5,946.5,452.5L1012.5,452.5"></path><path id="kity_path_228" fill="none" stroke="rgb(115, 161, 191)" stroke-width="1" d="M916.5,452.5C931.5,452.5,931.5,504.5,946.5,504.5L1012.5,504.5"></path><path id="kity_path_229" fill="none" stroke="rgb(115, 161, 191)" stroke-width="1" d="M800.5,674.5C819.5,674.5,819.5,452.5,838.5,452.5L916.5,452.5"></path><path id="kity_path_230" fill="none" stroke="rgb(115, 161, 191)" stroke-width="1" d="M800.5,674.5C828,674.5,828,618.5,855.5,618.5L961.5,618.5"></path><path id="kity_path_231" fill="none" stroke="rgb(115, 161, 191)" stroke-width="1" d="M800.5,674.5C839.5,674.5,839.5,682.5,878.5,682.5L947.5,682.5"></path><path id="kity_path_232" fill="none" stroke="rgb(115, 161, 191)" stroke-width="1" d="M800.5,674.5C846.5,674.5,846.5,738.5,892.5,738.5L946.5,738.5"></path><path id="kity_path_233" fill="none" stroke="rgb(115, 161, 191)" stroke-width="1" d="M969.5,93.5C990.5,93.5,990.5,45.5,1011.5,45.5L1093.5,45.5"></path><path id="kity_path_234" fill="none" stroke="rgb(115, 161, 191)" stroke-width="1" d="M969.5,93.5C988,93.5,988,138.5,1006.5,138.5L1083.5,138.5"></path><path id="kity_path_323" fill="none" stroke="rgb(115, 161, 191)" stroke-width="1" d="M704.5,674.5C543,674.5,543,734.5,381.5,734.5L328.5,734.5"></path><path id="kity_path_331" fill="none" stroke="rgb(115, 161, 191)" stroke-width="1" d="M328.5,734.5C303.5,734.5,303.5,621.5,278.5,621.5L180.5,621.5"></path><path id="kity_path_339" fill="none" stroke="rgb(115, 161, 191)" stroke-width="1" d="M328.5,734.5C305.5,734.5,305.5,665.5,282.5,665.5L174.5,665.5"></path><path id="kity_path_347" fill="none" stroke="rgb(115, 161, 191)" stroke-width="1" d="M328.5,734.5C313,734.5,313,718.5,297.5,718.5L180.5,718.5"></path><path id="kity_path_355" fill="none" stroke="rgb(115, 161, 191)" stroke-width="1" d="M328.5,734.5C301.5,734.5,301.5,780.5,274.5,780.5L180.5,780.5"></path><path id="kity_path_362" fill="none" stroke="rgb(115, 161, 191)" stroke-width="1" d="M127.5,128.5C111,128.5,111,102.5,94.5,102.5L26.5,102.5"></path><path id="kity_path_363" fill="none" stroke="rgb(115, 161, 191)" stroke-width="1" d="M127.5,128.5C113,128.5,113,154.5,98.5,154.5L20.5,154.5"></path><path id="kity_path_364" fill="none" stroke="rgb(115, 161, 191)" stroke-width="1" d="M217.5,436.5C211.5,436.5,211.5,128.5,205.5,128.5L127.5,128.5"></path><path id="kity_path_365" fill="none" stroke="rgb(115, 161, 191)" stroke-width="1" d="M217.5,436.5C182.5,436.5,182.5,247.5,147.5,247.5L93.5,247.5"></path><path id="kity_path_366" fill="none" stroke="rgb(115, 161, 191)" stroke-width="1" d="M217.5,436.5C193,436.5,193,352.5,168.5,352.5L90.5,352.5"></path><path id="kity_path_367" fill="none" stroke="rgb(115, 161, 191)" stroke-width="1" d="M104.5,552.5C89.5,552.5,89.5,526.5,74.5,526.5L21.5,526.5"></path><path id="kity_path_368" fill="none" stroke="rgb(115, 161, 191)" stroke-width="1" d="M104.5,552.5C86.5,552.5,86.5,578.5,68.5,578.5L28.5,578.5"></path><path id="kity_path_369" fill="none" stroke="rgb(115, 161, 191)" stroke-width="1" d="M217.5,436.5C200,436.5,200,552.5,182.5,552.5L104.5,552.5"></path><path id="kity_path_371" fill="none" stroke="rgb(115, 161, 191)" stroke-width="1" d="M328.5,734.5C319,734.5,319,851.5,309.5,851.5L167.5,851.5"></path></g><g id="minder_node1"><path id="node_outline1" fill="rgb(115, 161, 191)" stroke="rgb(115, 161, 191)" d="M548.5,399.5h86a5,5,0,0,1,5,5v30a5,5,0,0,1,-5,5h-86a5,5,0,0,1,-5,-5v-30a5,5,0,0,1,5,-5z" stroke-width="3"></path><g id="node_text1" fill="white"><text id="kity_text_22" text-rendering="inherit" font-size="16" dy=".8em" y="411.5" x="567.5">多线程</text></g></g><g id="kity_g_14" display="none"><path id="kity_path_15" fill="rgba(0, 92, 153, 0.5)" stroke="none" d="M953.5,870.5h44v15h-44z"></path><path id="kity_path_16" fill="none" stroke="rgb(0, 76, 128)" d="M953.5,870.5L997.5,870.5" stroke-width="1"></path></g><g id="minder_node2" opacity="1"><g id="node_expander1" style="cursor: pointer;"><path id="kity_path_36" fill="white" stroke="gray" d="M872.5,93.5A6,6,0,1,1,860.5,93.5A6,6,0,1,1,872.5,93.5"></path><path id="kity_path_37" fill="none" stroke="gray" d="M862,93.5L871,93.5"></path></g><path id="node_outline2" fill="rgb(238, 243, 246)" stroke="rgb(115, 161, 191)" d="M876.5,80.5h90a3,3,0,0,1,3,3v20a3,3,0,0,1,-3,3h-90a3,3,0,0,1,-3,-3v-20a3,3,0,0,1,3,-3z" stroke-width="1"></path><g id="node_text2" fill="black"><text id="kity_text_33" text-rendering="inherit" font-size="14" dy=".8em" y="86.5" x="893.5">线程创建</text></g></g><g id="minder_node3" opacity="1"><g id="node_expander2" style="cursor: pointer;" display="none"><path id="kity_path_44" fill="white" stroke="gray" d="M867.5,247.5A6,6,0,1,1,855.5,247.5A6,6,0,1,1,867.5,247.5"></path><path id="kity_path_45" fill="none" stroke="gray" d="M857,247.5L866,247.5"></path></g><path id="node_outline3" fill="rgb(238, 243, 246)" stroke="rgb(115, 161, 191)" d="M871.5,234.5h90a3,3,0,0,1,3,3v20a3,3,0,0,1,-3,3h-90a3,3,0,0,1,-3,-3v-20a3,3,0,0,1,3,-3z" stroke-width="1"></path><g id="node_text3" fill="black"><text id="kity_text_41" text-rendering="inherit" font-size="14" dy=".8em" y="240.5" x="888.5">线程状态</text></g></g><g id="minder_node4" opacity="1"><g id="node_expander3" style="cursor: pointer;" display="none"><path id="kity_path_52" fill="white" stroke="gray" d="M828.5,350.5A6,6,0,1,1,816.5,350.5A6,6,0,1,1,828.5,350.5"></path><path id="kity_path_53" fill="none" stroke="gray" d="M818,350.5L827,350.5"></path></g><path id="node_outline4" fill="rgb(238, 243, 246)" stroke="rgb(115, 161, 191)" d="M832.5,337.5h90a3,3,0,0,1,3,3v20a3,3,0,0,1,-3,3h-90a3,3,0,0,1,-3,-3v-20a3,3,0,0,1,3,-3z" stroke-width="1"></path><g id="node_text4" fill="black"><text id="kity_text_49" text-rendering="inherit" font-size="14" dy=".8em" y="343.5" x="849.5">线程中断</text></g></g><g id="minder_node6" opacity="1"><g id="node_expander5" style="cursor: pointer;"><path id="kity_path_68" fill="white" stroke="gray" d="M813.5,674.5A6,6,0,1,1,801.5,674.5A6,6,0,1,1,813.5,674.5"></path><path id="kity_path_69" fill="none" stroke="gray" d="M803,674.5L812,674.5"></path></g><path id="node_outline6" fill="rgb(238, 243, 246)" stroke="rgb(115, 161, 191)" d="M707.5,661.5h90a3,3,0,0,1,3,3v20a3,3,0,0,1,-3,3h-90a3,3,0,0,1,-3,-3v-20a3,3,0,0,1,3,-3z" stroke-width="1"></path><g id="node_text6" fill="black"><text id="kity_text_65" text-rendering="inherit" font-size="14" dy=".8em" y="667.5" x="724.5">线程安全</text></g><g id="node_priority1" display="none"><path id="kity_path_124" fill="#840023" stroke="none" d="M700,678c0,3.866,3.134,7,7,7h6c3.866,0,7,-3.134,7,-7V672H700V678z"></path><path id="kity_path_125" fill="#FF1200" stroke="none" d="M720,675c0,3.866,-3.134,7,-7,7H707c-3.866,0,-7,-3.134,-7,-7V672c0,-3.866,3.134,-7,7,-7h6c3.866,0,7,3.134,7,7V675z" opacity="0.8"></path><text id="kity_text_126" text-rendering="geometricPrecision" x="709" y="674.5" text-anchor="middle" font-style="italic" font-size="12" fill="white" dy="4">1</text></g></g><g id="minder_node22" opacity="1"><g id="node_expander21" style="cursor: pointer;"><path id="kity_path_208" fill="white" stroke="gray" d="M312.5,436.5A6,6,0,1,1,300.5,436.5A6,6,0,1,1,312.5,436.5"></path><path id="kity_path_209" fill="none" stroke="gray" d="M302,436.5L311,436.5"></path></g><path id="node_outline22" fill="rgb(238, 243, 246)" stroke="rgb(115, 161, 191)" d="M220.5,423.5h76a3,3,0,0,1,3,3v20a3,3,0,0,1,-3,3h-76a3,3,0,0,1,-3,-3v-20a3,3,0,0,1,3,-3z" stroke-width="1"></path><g id="node_text22" fill="black"><text id="kity_text_205" text-rendering="inherit" font-size="14" dy=".8em" y="429.5" x="237.5">线程池</text></g></g><g id="kity_g_12" display="none"><path id="kity_path_13" fill="none" stroke="rgb(66, 94, 112)" d="M892.5,261.5h58a5,5,0,0,1,5,5v12a5,5,0,0,1,-5,5h-58a5,5,0,0,1,-5,-5v-12a5,5,0,0,1,5,-5z" stroke-width="5"></path></g><g id="minder_node17"><g id="node_expander16" style="cursor: pointer;" display="none"><path id="kity_path_165" fill="white" stroke="gray" d="M956.5,386.5A6,6,0,1,1,944.5,386.5A6,6,0,1,1,956.5,386.5"></path><path id="kity_path_166" fill="none" stroke="gray"></path></g><path id="node_outline17" fill="none" stroke="none" d="M961.5,375.5h46a5,5,0,0,1,5,5v12a5,5,0,0,1,-5,5h-46a5,5,0,0,1,-5,-5v-12a5,5,0,0,1,5,-5z" stroke-width="3"></path><g id="node_text17" fill="black"><text id="kity_text_162" text-rendering="inherit" font-size="12" dy=".8em" y="380.5" x="966.5">原子性</text></g></g><g id="minder_node18"><g id="node_expander17" style="cursor: pointer;" display="none"><path id="kity_path_173" fill="white" stroke="gray" d="M956.5,438.5A6,6,0,1,1,944.5,438.5A6,6,0,1,1,956.5,438.5"></path><path id="kity_path_174" fill="none" stroke="gray"></path></g><path id="node_outline18" fill="none" stroke="none" d="M961.5,427.5h46a5,5,0,0,1,5,5v12a5,5,0,0,1,-5,5h-46a5,5,0,0,1,-5,-5v-12a5,5,0,0,1,5,-5z" stroke-width="3"></path><g id="node_text18" fill="black"><text id="kity_text_170" text-rendering="inherit" font-size="12" dy=".8em" y="432.5" x="966.5">可见性</text></g></g><g id="minder_node19"><g id="node_expander18" style="cursor: pointer;" display="none"><path id="kity_path_181" fill="white" stroke="gray" d="M956.5,490.5A6,6,0,1,1,944.5,490.5A6,6,0,1,1,956.5,490.5"></path><path id="kity_path_182" fill="none" stroke="gray"></path></g><path id="node_outline19" fill="none" stroke="none" d="M961.5,479.5h46a5,5,0,0,1,5,5v12a5,5,0,0,1,-5,5h-46a5,5,0,0,1,-5,-5v-12a5,5,0,0,1,5,-5z" stroke-width="3"></path><g id="node_text19" fill="black"><text id="kity_text_178" text-rendering="inherit" font-size="12" dy=".8em" y="484.5" x="966.5">有序性</text></g></g><g id="minder_node16" opacity="1"><g id="node_expander15" style="cursor: pointer;"><path id="kity_path_157" fill="white" stroke="gray" d="M848.5,438.5A6,6,0,1,1,836.5,438.5A6,6,0,1,1,848.5,438.5"></path><path id="kity_path_158" fill="none" stroke="gray" d="M838,438.5L847,438.5"></path></g><path id="node_outline16" fill="none" stroke="none" d="M853.5,427.5h58a5,5,0,0,1,5,5v12a5,5,0,0,1,-5,5h-58a5,5,0,0,1,-5,-5v-12a5,5,0,0,1,5,-5z" stroke-width="3"></path><g id="node_text16" fill="black"><text id="kity_text_154" text-rendering="inherit" font-size="12" dy=".8em" y="432.5" x="858.5">导致原因</text></g></g><g id="minder_node13" opacity="1"><g id="node_expander12" style="cursor: pointer;" display="none"><path id="kity_path_133" fill="white" stroke="gray" d="M865.5,604.5A6,6,0,1,1,853.5,604.5A6,6,0,1,1,865.5,604.5"></path><path id="kity_path_134" fill="none" stroke="gray"></path></g><path id="node_outline13" fill="none" stroke="none" d="M870.5,593.5h86a5,5,0,0,1,5,5v12a5,5,0,0,1,-5,5h-86a5,5,0,0,1,-5,-5v-12a5,5,0,0,1,5,-5z" stroke-width="3"></path><g id="node_text13" fill="black"><text id="kity_text_130" text-rendering="inherit" font-size="12" dy=".8em" y="598.5" x="875.5">synchronized</text></g></g><g id="minder_node20" opacity="1"><g id="node_expander19" style="cursor: pointer;" display="none"><path id="kity_path_192" fill="white" stroke="gray" d="M888.5,668.5A6,6,0,1,1,876.5,668.5A6,6,0,1,1,888.5,668.5"></path><path id="kity_path_193" fill="none" stroke="gray"></path></g><path id="node_outline20" fill="none" stroke="none" d="M893.5,657.5h49a5,5,0,0,1,5,5v12a5,5,0,0,1,-5,5h-49a5,5,0,0,1,-5,-5v-12a5,5,0,0,1,5,-5z" stroke-width="3"></path><g id="node_text20" fill="black"><text id="kity_text_189" text-rendering="inherit" font-size="12" dy=".8em" y="662.5" x="898.5">voliate</text></g></g><g id="minder_node21" opacity="1"><g id="node_expander20" style="cursor: pointer;" display="none"><path id="kity_path_200" fill="white" stroke="gray" d="M902.5,724.5A6,6,0,1,1,890.5,724.5A6,6,0,1,1,902.5,724.5"></path><path id="kity_path_201" fill="none" stroke="gray"></path></g><path id="node_outline21" fill="none" stroke="none" d="M907.5,713.5h34a5,5,0,0,1,5,5v12a5,5,0,0,1,-5,5h-34a5,5,0,0,1,-5,-5v-12a5,5,0,0,1,5,-5z" stroke-width="3"></path><g id="node_text21" fill="black"><text id="kity_text_197" text-rendering="inherit" font-size="12" dy=".8em" y="718.5" x="912.5">final</text></g></g><g id="minder_node9" opacity="1"><g id="node_expander8" style="cursor: pointer;" display="none"><path id="kity_path_93" fill="white" stroke="gray" d="M1021.5,31.5A6,6,0,1,1,1009.5,31.5A6,6,0,1,1,1021.5,31.5"></path><path id="kity_path_94" fill="none" stroke="gray"></path></g><path id="node_outline9" fill="none" stroke="none" d="M1026.5,20.5h62a5,5,0,0,1,5,5v12a5,5,0,0,1,-5,5h-62a5,5,0,0,1,-5,-5v-12a5,5,0,0,1,5,-5z" stroke-width="3"></path><g id="node_text9" fill="black"><text id="kity_text_90" text-rendering="inherit" font-size="12" dy=".8em" y="25.5" x="1031.5">runnable</text></g></g><g id="minder_node10" opacity="1"><g id="node_expander9" style="cursor: pointer;" display="none"><path id="kity_path_101" fill="white" stroke="gray" d="M1016.5,124.5A6,6,0,1,1,1004.5,124.5A6,6,0,1,1,1016.5,124.5"></path><path id="kity_path_102" fill="none" stroke="gray"></path></g><path id="node_outline10" fill="none" stroke="none" d="M1021.5,113.5h57a5,5,0,0,1,5,5v12a5,5,0,0,1,-5,5h-57a5,5,0,0,1,-5,-5v-12a5,5,0,0,1,5,-5z" stroke-width="3"></path><g id="node_text10" fill="black"><text id="kity_text_98" text-rendering="inherit" font-size="12" dy=".8em" y="118.5" x="1026.5">callable</text></g></g><g id="minder_node33" opacity="1"><g id="node_expander32" style="cursor: pointer;"><path id="kity_path_328" fill="white" stroke="gray" d="M328.5,720.5A6,6,0,1,1,316.5,720.5A6,6,0,1,1,328.5,720.5"></path><path id="kity_path_329" fill="none" stroke="gray" d="M318,720.5L327,720.5"></path></g><path id="node_outline33" fill="none" stroke="none" d="M333.5,709.5h33a5,5,0,0,1,5,5v12a5,5,0,0,1,-5,5h-33a5,5,0,0,1,-5,-5v-12a5,5,0,0,1,5,-5z" stroke-width="3"></path><g id="node_text33" fill="black"><text id="kity_text_325" text-rendering="inherit" font-size="12" dy=".8em" y="714.5" x="338.5">JUC</text></g></g><g id="minder_node34" opacity="1"><g id="node_expander33" style="cursor: pointer;" display="none"><path id="kity_path_336" fill="white" stroke="gray" d="M180.5,607.5A6,6,0,1,1,168.5,607.5A6,6,0,1,1,180.5,607.5"></path><path id="kity_path_337" fill="none" stroke="gray"></path></g><path id="node_outline34" fill="none" stroke="none" d="M185.5,596.5h78a5,5,0,0,1,5,5v12a5,5,0,0,1,-5,5h-78a5,5,0,0,1,-5,-5v-12a5,5,0,0,1,5,-5z" stroke-width="3"></path><g id="node_text34" fill="black"><text id="kity_text_333" text-rendering="inherit" font-size="12" dy=".8em" y="601.5" x="190.5">锁机制Locks</text></g></g><g id="minder_node35" opacity="1"><g id="node_expander34" style="cursor: pointer;" display="none"><path id="kity_path_344" fill="white" stroke="gray" d="M174.5,651.5A6,6,0,1,1,162.5,651.5A6,6,0,1,1,174.5,651.5"></path><path id="kity_path_345" fill="none" stroke="gray"></path></g><path id="node_outline35" fill="none" stroke="none" d="M179.5,640.5h88a5,5,0,0,1,5,5v12a5,5,0,0,1,-5,5h-88a5,5,0,0,1,-5,-5v-12a5,5,0,0,1,5,-5z" stroke-width="3"></path><g id="node_text35" fill="black"><text id="kity_text_341" text-rendering="inherit" font-size="12" dy=".8em" y="645.5" x="184.5">原子类atomic</text></g></g><g id="minder_node36" opacity="1"><g id="node_expander35" style="cursor: pointer;" display="none"><path id="kity_path_352" fill="white" stroke="gray" d="M180.5,704.5A6,6,0,1,1,168.5,704.5A6,6,0,1,1,180.5,704.5"></path><path id="kity_path_353" fill="none" stroke="gray"></path></g><path id="node_outline36" fill="none" stroke="none" d="M185.5,693.5h97a5,5,0,0,1,5,5v12a5,5,0,0,1,-5,5h-97a5,5,0,0,1,-5,-5v-12a5,5,0,0,1,5,-5z" stroke-width="3"></path><g id="node_text36" fill="black"><text id="kity_text_349" text-rendering="inherit" font-size="12" dy=".8em" y="698.5" x="190.5">线程池Executor</text></g></g><g id="minder_node37" opacity="1"><g id="node_expander36" style="cursor: pointer;" display="none"><path id="kity_path_360" fill="white" stroke="gray" d="M180.5,766.5A6,6,0,1,1,168.5,766.5A6,6,0,1,1,180.5,766.5"></path><path id="kity_path_361" fill="none" stroke="gray"></path></g><path id="node_outline37" fill="none" stroke="none" d="M185.5,755.5h74a5,5,0,0,1,5,5v12a5,5,0,0,1,-5,5h-74a5,5,0,0,1,-5,-5v-12a5,5,0,0,1,5,-5z" stroke-width="3"></path><g id="node_text37" fill="black"><text id="kity_text_357" text-rendering="inherit" font-size="12" dy=".8em" y="760.5" x="190.5">信号量Tools</text></g></g><g id="minder_node26" opacity="1"><g id="node_expander25" style="cursor: pointer;" display="none"><path id="kity_path_267" fill="white" stroke="gray" d="M96.5,88.5A6,6,0,1,1,84.5,88.5A6,6,0,1,1,96.5,88.5"></path><path id="kity_path_268" fill="none" stroke="gray"></path></g><path id="node_outline26" fill="none" stroke="none" d="M31.5,77.5h48a5,5,0,0,1,5,5v12a5,5,0,0,1,-5,5h-48a5,5,0,0,1,-5,-5v-12a5,5,0,0,1,5,-5z" stroke-width="3"></path><g id="node_text26" fill="black"><text id="kity_text_264" text-rendering="inherit" font-size="12" dy=".8em" y="82.5" x="36.5">submit</text></g></g><g id="minder_node27" opacity="1"><g id="node_expander26" style="cursor: pointer;" display="none"><path id="kity_path_275" fill="white" stroke="gray" d="M100.5,140.5A6,6,0,1,1,88.5,140.5A6,6,0,1,1,100.5,140.5"></path><path id="kity_path_276" fill="none" stroke="gray"></path></g><path id="node_outline27" fill="none" stroke="none" d="M25.5,129.5h58a5,5,0,0,1,5,5v12a5,5,0,0,1,-5,5h-58a5,5,0,0,1,-5,-5v-12a5,5,0,0,1,5,-5z" stroke-width="3"></path><g id="node_text27" fill="black"><text id="kity_text_272" text-rendering="inherit" font-size="12" dy=".8em" y="134.5" x="30.5">execute</text></g></g><g id="minder_node25" opacity="1"><g id="node_expander24" style="cursor: pointer;"><path id="kity_path_259" fill="white" stroke="gray" d="M207.5,114.5A6,6,0,1,1,195.5,114.5A6,6,0,1,1,207.5,114.5"></path><path id="kity_path_260" fill="none" stroke="gray" d="M197,114.5L206,114.5"></path></g><path id="node_outline25" fill="none" stroke="none" d="M132.5,103.5h58a5,5,0,0,1,5,5v12a5,5,0,0,1,-5,5h-58a5,5,0,0,1,-5,-5v-12a5,5,0,0,1,5,-5z" stroke-width="3"></path><g id="node_text25" fill="black"><text id="kity_text_256" text-rendering="inherit" font-size="12" dy=".8em" y="108.5" x="137.5">提交线程</text></g></g><g id="minder_node28" opacity="1"><g id="node_expander27" style="cursor: pointer;" display="none"><path id="kity_path_288" fill="white" stroke="gray" d="M149.5,233.5A6,6,0,1,1,137.5,233.5A6,6,0,1,1,149.5,233.5"></path><path id="kity_path_289" fill="none" stroke="gray"></path></g><path id="node_outline28" fill="none" stroke="none" d="M98.5,222.5h34a5,5,0,0,1,5,5v12a5,5,0,0,1,-5,5h-34a5,5,0,0,1,-5,-5v-12a5,5,0,0,1,5,-5z" stroke-width="3"></path><g id="node_text28" fill="black"><text id="kity_text_285" text-rendering="inherit" font-size="12" dy=".8em" y="227.5" x="103.5">参数</text></g></g><g id="minder_node29" opacity="1"><g id="node_expander28" style="cursor: pointer;" display="none"><path id="kity_path_296" fill="white" stroke="gray" d="M170.5,338.5A6,6,0,1,1,158.5,338.5A6,6,0,1,1,170.5,338.5"></path><path id="kity_path_297" fill="none" stroke="gray"></path></g><path id="node_outline29" fill="none" stroke="none" d="M95.5,327.5h58a5,5,0,0,1,5,5v12a5,5,0,0,1,-5,5h-58a5,5,0,0,1,-5,-5v-12a5,5,0,0,1,5,-5z" stroke-width="3"></path><g id="node_text29" fill="black"><text id="kity_text_293" text-rendering="inherit" font-size="12" dy=".8em" y="332.5" x="100.5">提交逻辑</text></g></g><g id="minder_node31"><g id="node_expander30" style="cursor: pointer;" display="none"><path id="kity_path_312" fill="white" stroke="gray" d="M76.5,512.5A6,6,0,1,1,64.5,512.5A6,6,0,1,1,76.5,512.5"></path><path id="kity_path_313" fill="none" stroke="gray"></path></g><path id="node_outline31" fill="none" stroke="none" d="M26.5,501.5h33a5,5,0,0,1,5,5v12a5,5,0,0,1,-5,5h-33a5,5,0,0,1,-5,-5v-12a5,5,0,0,1,5,-5z" stroke-width="3"></path><g id="node_text31" fill="black"><text id="kity_text_309" text-rendering="inherit" font-size="12" dy=".8em" y="506.5" x="31.5">cpu</text></g></g><g id="minder_node32" opacity="1"><g id="node_expander31" style="cursor: pointer;" display="none"><path id="kity_path_320" fill="white" stroke="gray" d="M70.5,564.5A6,6,0,1,1,58.5,564.5A6,6,0,1,1,70.5,564.5"></path><path id="kity_path_321" fill="none" stroke="gray"></path></g><path id="node_outline32" fill="none" stroke="none" d="M33.5,553.5h20a5,5,0,0,1,5,5v12a5,5,0,0,1,-5,5h-20a5,5,0,0,1,-5,-5v-12a5,5,0,0,1,5,-5z" stroke-width="3"></path><g id="node_text32" fill="black"><text id="kity_text_317" text-rendering="inherit" font-size="12" dy=".8em" y="558.5" x="38.5">io</text></g></g><g id="minder_node30" opacity="1"><g id="node_expander29" style="cursor: pointer;"><path id="kity_path_304" fill="white" stroke="gray" d="M184.5,538.5A6,6,0,1,1,172.5,538.5A6,6,0,1,1,184.5,538.5"></path><path id="kity_path_305" fill="none" stroke="gray" d="M174,538.5L183,538.5"></path></g><path id="node_outline30" fill="none" stroke="none" d="M109.5,527.5h58a5,5,0,0,1,5,5v12a5,5,0,0,1,-5,5h-58a5,5,0,0,1,-5,-5v-12a5,5,0,0,1,5,-5z" stroke-width="3"></path><g id="node_text30" fill="black"><text id="kity_text_301" text-rendering="inherit" font-size="12" dy=".8em" y="532.5" x="114.5">线程数目</text></g></g><g id="minder_node38" opacity="1"><g id="node_expander37" style="cursor: pointer;" display="none"><path id="kity_path_376" fill="white" stroke="gray" d="M167.5,837.5A6,6,0,1,1,155.5,837.5A6,6,0,1,1,167.5,837.5"></path><path id="kity_path_377" fill="none" stroke="gray"></path></g><path id="node_outline38" fill="none" stroke="none" d="M172.5,826.5h122a5,5,0,0,1,5,5v12a5,5,0,0,1,-5,5h-122a5,5,0,0,1,-5,-5v-12a5,5,0,0,1,5,-5z" stroke-width="3"></path><g id="node_text38" fill="black"><text id="kity_text_373" text-rendering="inherit" font-size="12" dy=".8em" y="831.5" x="177.5">并发集合Collections</text></g></g></g></g></svg>